<?xml version="1.0" encoding="UTF-8"?>
<!-- Created with Inkscape (http://www.inkscape.org/) -->
<svg width="100" height="100" version="1.1" viewBox="0 0 100 100" xmlns="http://www.w3.org/2000/svg" xmlns:cc="http://creativecommons.org/ns#" xmlns:dc="http://purl.org/dc/elements/1.1/" xmlns:rdf="http://www.w3.org/1999/02/22-rdf-syntax-ns#">
 <metadata>
  <rdf:RDF>
   <cc:Work rdf:about="">
    <dc:format>image/svg+xml</dc:format>
    <dc:type rdf:resource="http://purl.org/dc/dcmitype/StillImage"/>
    <dc:title/>
   </cc:Work>
  </rdf:RDF>
 </metadata>
 <g>
  <rect x="1" y="1" width="98" height="98" rx="2.5" ry="2.5" fill="#c83"/>
  <path d="m65 4.9058h30s-0.7425 13.13-3.75 18.75c-2.5024 4.6758-11.25 11.25-11.25 11.25s-8.7476-6.5743-11.25-11.25c-3.0075-5.6196-3.75-18.75-3.75-18.75z" fill="#838" stroke="#fff" stroke-width="1.5"/>
  <path d="m3.3125 1.0196c-1.2952 0.097-2.3125 1.1596-2.3125 2.4804v93c0 1.385 1.115 2.5 2.5 2.5h93c1.3128 0 2.3705-1.0051 2.4785-2.289a141.42 141.42 0 0 0-95.666-95.691z" fill="#0b5"/>
  <path d="m3.3125 1.0196c-1.2952 0.097-2.3125 1.1596-2.3125 2.4804v93c0 1.385 1.115 2.5 2.5 2.5h93c1.3128 0 2.3705-1.0051 2.4785-2.289a141.42 141.42 0 0 0-95.666-95.691z" fill="#0b5"/>
 </g>
 <rect x="1" y="1" width="98" height="98" rx="2.5" ry="2.5" fill="none" stroke="#000" stroke-linecap="round" stroke-linejoin="bevel" stroke-width="2"/>
</svg>
