<?xml version="1.0" encoding="UTF-8"?>
<!-- Created with Inkscape (http://www.inkscape.org/) -->
<svg width="100" height="100" version="1.1" viewBox="0 0 100 100" xmlns="http://www.w3.org/2000/svg" xmlns:cc="http://creativecommons.org/ns#" xmlns:dc="http://purl.org/dc/elements/1.1/" xmlns:rdf="http://www.w3.org/1999/02/22-rdf-syntax-ns#">
 <metadata>
  <rdf:RDF>
   <cc:Work rdf:about="">
    <dc:format>image/svg+xml</dc:format>
    <dc:type rdf:resource="http://purl.org/dc/dcmitype/StillImage"/>
    <dc:title/>
   </cc:Work>
  </rdf:RDF>
 </metadata>
 <g transform="rotate(90,50,50)">
  <rect x="1" y="1" width="98" height="98" rx="2.5" ry="2.5" fill="#0b5"/>
  <path d="m50 20.711a70.711 70.711 0 0 1-48.191-19.045c0.44504-0.4104 1.0355-0.666 1.6914-0.666h93c0.64483 0 1.2255 0.2483 1.668 0.6465a70.711 70.711 0 0 1-48.168 19.064z" fill="#c83"/>
  <path d="m79.289 50a70.711 70.711 0 0 1 19.045-48.191c0.4104 0.44504 0.666 1.0355 0.666 1.6914v93c0 0.64483-0.2483 1.2255-0.6465 1.668a70.711 70.711 0 0 1-19.064-48.168z" fill="#c83"/>
  <rect x="1" y="1" width="98" height="98" rx="2.5" ry="2.5" fill="none" stroke="#000" stroke-linecap="round" stroke-linejoin="bevel" stroke-width="2"/>
 </g>
</svg>
