<?xml version="1.0" encoding="UTF-8"?>
<!-- Created with Inkscape (http://www.inkscape.org/) -->
<svg width="100" height="100" version="1.1" viewBox="0 0 100 100" xmlns="http://www.w3.org/2000/svg" xmlns:cc="http://creativecommons.org/ns#" xmlns:dc="http://purl.org/dc/elements/1.1/" xmlns:rdf="http://www.w3.org/1999/02/22-rdf-syntax-ns#">
 <metadata>
  <rdf:RDF>
   <cc:Work rdf:about="">
    <dc:format>image/svg+xml</dc:format>
    <dc:type rdf:resource="http://purl.org/dc/dcmitype/StillImage"/>
    <dc:title/>
   </cc:Work>
  </rdf:RDF>
 </metadata>
 <rect x="1" y="1" width="98" height="98" rx="2.5" ry="2.5" fill="#0b5"/>
 <g fill="none">
  <path d="m1.0002 50s2.0518 1e-4 4.0346-0.5312 3.7597-1.5572 3.7597-1.5572 7.753-4.4762 16.706-4.4762 24.5 6.5646 24.5 6.5646 15.547 6.5646 24.5 6.5646 16.706-4.4762 16.706-4.4762 1.7772-1.026 3.7597-1.5572 4.0346-0.5312 4.0346-0.5312" stroke="#36f" stroke-width="15"/>
  <path d="m50 65v-30" stroke="#000" stroke-width="18"/>
  <path d="m50 99v-98" stroke="#fff" stroke-width="15"/>
 </g>
 <path d="m50 20.711a70.711 70.711 0 0 1-48.191-19.045c0.445-0.4104 1.0356-0.666 1.6914-0.666h93c0.6449 0 1.2255 0.2483 1.668 0.6465a70.711 70.711 0 0 1-48.168 19.064z" fill="#c83"/>
 <rect x="1" y="1" width="98" height="98" rx="2.5" ry="2.5" fill="none" stroke="#000" stroke-linecap="round" stroke-linejoin="bevel" stroke-width="2"/>
</svg>
